<svg width="48" height="48" viewBox="0 0 48 48" fill="none" xmlns="http://www.w3.org/2000/svg">
<path d="M48 24C48 37.2548 37.2548 48 24 48C10.7452 48 0 37.2548 0 24C0 10.7452 10.7452 0 24 0C37.2548 0 48 10.7452 48 24Z" fill="url(#paint0_linear_422_1745)"/>
<g clip-path="url(#clip0_422_1745)">
<path d="M17 19H18C18.5304 19 19.0391 18.7893 19.4142 18.4142C19.7893 18.0391 20 17.5304 20 17C20 16.7348 20.1054 16.4804 20.2929 16.2929C20.4804 16.1054 20.7348 16 21 16H27C27.2652 16 27.5196 16.1054 27.7071 16.2929C27.8946 16.4804 28 16.7348 28 17C28 17.5304 28.2107 18.0391 28.5858 18.4142C28.9609 18.7893 29.4696 19 30 19H31C31.5304 19 32.0391 19.2107 32.4142 19.5858C32.7893 19.9609 33 20.4696 33 21V30C33 30.5304 32.7893 31.0391 32.4142 31.4142C32.0391 31.7893 31.5304 32 31 32H17C16.4696 32 15.9609 31.7893 15.5858 31.4142C15.2107 31.0391 15 30.5304 15 30V21C15 20.4696 15.2107 19.9609 15.5858 19.5858C15.9609 19.2107 16.4696 19 17 19Z" stroke="white" stroke-width="2" stroke-linecap="round" stroke-linejoin="round"/>
<path d="M21 25C21 25.7956 21.3161 26.5587 21.8787 27.1213C22.4413 27.6839 23.2044 28 24 28C24.7956 28 25.5587 27.6839 26.1213 27.1213C26.6839 26.5587 27 25.7956 27 25C27 24.2044 26.6839 23.4413 26.1213 22.8787C25.5587 22.3161 24.7956 22 24 22C23.2044 22 22.4413 22.3161 21.8787 22.8787C21.3161 23.4413 21 24.2044 21 25Z" stroke="white" stroke-width="2" stroke-linecap="round" stroke-linejoin="round"/>
</g>
<defs>
<linearGradient id="paint0_linear_422_1745" x1="24" y1="9.23872e-07" x2="86" y2="68" gradientUnits="userSpaceOnUse">
<stop stop-color="#FF9100"/>
<stop offset="1" stop-color="#FF9100" stop-opacity="0"/>
</linearGradient>
<clipPath id="clip0_422_1745">
<rect width="24" height="24" fill="white" transform="translate(12 12)"/>
</clipPath>
</defs>
</svg>
