<svg width="28" height="28" viewBox="0 0 28 28" fill="none" xmlns="http://www.w3.org/2000/svg">
<g clip-path="url(#clip0_137_713)">
<path d="M10.5 12.8333C10.5 13.7615 10.8687 14.6517 11.5251 15.3081C12.1815 15.9645 13.0717 16.3333 14 16.3333C14.9283 16.3333 15.8185 15.9645 16.4749 15.3081C17.1313 14.6517 17.5 13.7615 17.5 12.8333C17.5 11.905 17.1313 11.0148 16.4749 10.3584C15.8185 9.702 14.9283 9.33325 14 9.33325C13.0717 9.33325 12.1815 9.702 11.5251 10.3584C10.8687 11.0148 10.5 11.905 10.5 12.8333Z" stroke="#64748B" stroke-width="2" stroke-linecap="round" stroke-linejoin="round"/>
<path d="M20.5999 19.4331L15.6497 24.3832C15.2122 24.8203 14.619 25.0658 14.0006 25.0658C13.3822 25.0658 12.789 24.8203 12.3515 24.3832L7.40019 19.4331C6.09495 18.1278 5.20608 16.4647 4.84599 14.6542C4.4859 12.8438 4.67076 10.9672 5.37719 9.26175C6.08363 7.55634 7.2799 6.0987 8.81475 5.07316C10.3496 4.04762 12.1541 3.50024 14 3.50024C15.846 3.50024 17.6504 4.04762 19.1853 5.07316C20.7201 6.0987 21.9164 7.55634 22.6229 9.26175C23.3293 10.9672 23.5141 12.8438 23.1541 14.6542C22.794 16.4647 21.9051 18.1278 20.5999 19.4331Z" stroke="#64748B" stroke-width="2" stroke-linecap="round" stroke-linejoin="round"/>
</g>
<defs>
<clipPath id="clip0_137_713">
<rect width="28" height="28" fill="white"/>
</clipPath>
</defs>
</svg>
