<svg width="28" height="28" viewBox="0 0 28 28" fill="none" xmlns="http://www.w3.org/2000/svg">
<g clip-path="url(#clip0_413_1722)">
<path d="M10.5 12.8333C10.5 13.7616 10.8687 14.6518 11.5251 15.3082C12.1815 15.9646 13.0717 16.3333 14 16.3333C14.9283 16.3333 15.8185 15.9646 16.4749 15.3082C17.1313 14.6518 17.5 13.7616 17.5 12.8333C17.5 11.9051 17.1313 11.0148 16.4749 10.3585C15.8185 9.70209 14.9283 9.33334 14 9.33334C13.0717 9.33334 12.1815 9.70209 11.5251 10.3585C10.8687 11.0148 10.5 11.9051 10.5 12.8333Z" stroke="#FF6000" stroke-width="2" stroke-linecap="round" stroke-linejoin="round"/>
<path d="M20.5999 19.4332L15.6498 24.3833C15.2122 24.8204 14.6191 25.0659 14.0007 25.0659C13.3822 25.0659 12.7891 24.8204 12.3516 24.3833L7.40025 19.4332C6.09501 18.1279 5.20614 16.4648 4.84605 14.6543C4.48596 12.8439 4.67082 10.9673 5.37726 9.26185C6.08369 7.55643 7.27997 6.09879 8.81481 5.07325C10.3497 4.04771 12.1541 3.50034 14.0001 3.50034C15.846 3.50034 17.6505 4.04771 19.1854 5.07325C20.7202 6.09879 21.9165 7.55643 22.6229 9.26185C23.3293 10.9673 23.5142 12.8439 23.1541 14.6543C22.794 16.4648 21.9052 18.1279 20.5999 19.4332Z" stroke="#FF6000" stroke-width="2" stroke-linecap="round" stroke-linejoin="round"/>
</g>
<defs>
<clipPath id="clip0_413_1722">
<rect width="28" height="28" fill="white"/>
</clipPath>
</defs>
</svg>
