<svg width="92" height="14" viewBox="0 0 92 14" fill="none" xmlns="http://www.w3.org/2000/svg">
<path d="M1.538 13.144C1.166 13.144 0.878 13.042 0.674 12.838C0.482 12.622 0.386 12.328 0.386 11.956V1.354C0.386 0.97 0.482 0.676 0.674 0.471999C0.878 0.267999 1.166 0.165999 1.538 0.165999C1.91 0.165999 2.192 0.267999 2.384 0.471999C2.588 0.676 2.69 0.97 2.69 1.354V11.956C2.69 12.328 2.594 12.622 2.402 12.838C2.21 13.042 1.922 13.144 1.538 13.144ZM9.84008 13.18C9.31208 13.18 8.78408 13.138 8.25608 13.054C7.72808 12.982 7.23008 12.868 6.76208 12.712C6.29408 12.544 5.87408 12.34 5.50208 12.1C5.28608 11.956 5.13608 11.782 5.05208 11.578C4.96808 11.374 4.93808 11.176 4.96208 10.984C4.99808 10.78 5.07608 10.606 5.19608 10.462C5.32808 10.306 5.49008 10.21 5.68208 10.174C5.87408 10.138 6.08408 10.192 6.31208 10.336C6.84008 10.648 7.39808 10.876 7.98608 11.02C8.57408 11.164 9.19208 11.236 9.84008 11.236C10.7881 11.236 11.4781 11.08 11.9101 10.768C12.3421 10.444 12.5581 10.03 12.5581 9.526C12.5581 9.106 12.4021 8.776 12.0901 8.536C11.7901 8.296 11.2681 8.098 10.5241 7.942L8.54408 7.528C7.40408 7.288 6.55208 6.886 5.98808 6.322C5.43608 5.746 5.16008 4.99 5.16008 4.054C5.16008 3.466 5.28008 2.932 5.52008 2.452C5.76008 1.972 6.09608 1.558 6.52808 1.21C6.97208 0.862 7.49408 0.597999 8.09408 0.417999C8.70608 0.225999 9.37808 0.129999 10.1101 0.129999C10.8301 0.129999 11.5141 0.219999 12.1621 0.399999C12.8101 0.579999 13.3921 0.843999 13.9081 1.192C14.1001 1.324 14.2261 1.486 14.2861 1.678C14.3581 1.87 14.3761 2.062 14.3401 2.254C14.3041 2.434 14.2201 2.59 14.0881 2.722C13.9561 2.854 13.7881 2.932 13.5841 2.956C13.3921 2.98 13.1701 2.92 12.9181 2.776C12.4741 2.524 12.0241 2.344 11.5681 2.236C11.1121 2.128 10.6201 2.074 10.0921 2.074C9.54008 2.074 9.06608 2.152 8.67008 2.308C8.27408 2.464 7.96808 2.686 7.75208 2.974C7.54808 3.25 7.44608 3.58 7.44608 3.964C7.44608 4.396 7.59008 4.744 7.87808 5.008C8.16608 5.26 8.65808 5.458 9.35408 5.602L11.3161 6.016C12.5041 6.268 13.3861 6.664 13.9621 7.204C14.5501 7.744 14.8441 8.464 14.8441 9.364C14.8441 9.94 14.7241 10.462 14.4841 10.93C14.2561 11.398 13.9201 11.8 13.4761 12.136C13.0441 12.472 12.5221 12.73 11.9101 12.91C11.2981 13.09 10.6081 13.18 9.84008 13.18ZM21.1955 13.18C20.6675 13.18 20.1395 13.138 19.6115 13.054C19.0835 12.982 18.5855 12.868 18.1175 12.712C17.6495 12.544 17.2295 12.34 16.8575 12.1C16.6415 11.956 16.4915 11.782 16.4075 11.578C16.3235 11.374 16.2935 11.176 16.3175 10.984C16.3535 10.78 16.4315 10.606 16.5515 10.462C16.6835 10.306 16.8455 10.21 17.0375 10.174C17.2295 10.138 17.4395 10.192 17.6675 10.336C18.1955 10.648 18.7535 10.876 19.3415 11.02C19.9295 11.164 20.5475 11.236 21.1955 11.236C22.1435 11.236 22.8335 11.08 23.2655 10.768C23.6975 10.444 23.9135 10.03 23.9135 9.526C23.9135 9.106 23.7575 8.776 23.4455 8.536C23.1455 8.296 22.6235 8.098 21.8795 7.942L19.8995 7.528C18.7595 7.288 17.9075 6.886 17.3435 6.322C16.7915 5.746 16.5155 4.99 16.5155 4.054C16.5155 3.466 16.6355 2.932 16.8755 2.452C17.1155 1.972 17.4515 1.558 17.8835 1.21C18.3275 0.862 18.8495 0.597999 19.4495 0.417999C20.0615 0.225999 20.7335 0.129999 21.4655 0.129999C22.1855 0.129999 22.8695 0.219999 23.5175 0.399999C24.1655 0.579999 24.7475 0.843999 25.2635 1.192C25.4555 1.324 25.5815 1.486 25.6415 1.678C25.7135 1.87 25.7315 2.062 25.6955 2.254C25.6595 2.434 25.5755 2.59 25.4435 2.722C25.3115 2.854 25.1435 2.932 24.9395 2.956C24.7475 2.98 24.5255 2.92 24.2735 2.776C23.8295 2.524 23.3795 2.344 22.9235 2.236C22.4675 2.128 21.9755 2.074 21.4475 2.074C20.8955 2.074 20.4215 2.152 20.0255 2.308C19.6295 2.464 19.3235 2.686 19.1075 2.974C18.9035 3.25 18.8015 3.58 18.8015 3.964C18.8015 4.396 18.9455 4.744 19.2335 5.008C19.5215 5.26 20.0135 5.458 20.7095 5.602L22.6715 6.016C23.8595 6.268 24.7415 6.664 25.3175 7.204C25.9055 7.744 26.1995 8.464 26.1995 9.364C26.1995 9.94 26.0795 10.462 25.8395 10.93C25.6115 11.398 25.2755 11.8 24.8315 12.136C24.3995 12.472 23.8775 12.73 23.2655 12.91C22.6535 13.09 21.9635 13.18 21.1955 13.18ZM33.451 13.18C32.575 13.18 31.801 13.066 31.129 12.838C30.469 12.61 29.911 12.274 29.455 11.83C28.999 11.374 28.657 10.81 28.429 10.138C28.201 9.466 28.087 8.686 28.087 7.798V1.336C28.087 0.939999 28.183 0.645999 28.375 0.454C28.579 0.261999 28.867 0.165999 29.239 0.165999C29.611 0.165999 29.893 0.261999 30.085 0.454C30.289 0.645999 30.391 0.939999 30.391 1.336V7.78C30.391 8.92 30.649 9.778 31.165 10.354C31.693 10.918 32.455 11.2 33.451 11.2C34.447 11.2 35.203 10.918 35.719 10.354C36.235 9.778 36.493 8.92 36.493 7.78V1.336C36.493 0.939999 36.589 0.645999 36.781 0.454C36.985 0.261999 37.273 0.165999 37.645 0.165999C38.005 0.165999 38.281 0.261999 38.473 0.454C38.677 0.645999 38.779 0.939999 38.779 1.336V7.798C38.779 8.974 38.575 9.964 38.167 10.768C37.771 11.572 37.177 12.178 36.385 12.586C35.593 12.982 34.615 13.18 33.451 13.18ZM42.6901 13C42.2941 13 41.9881 12.898 41.7721 12.694C41.5681 12.478 41.4661 12.172 41.4661 11.776V1.534C41.4661 1.138 41.5681 0.838 41.7721 0.633999C41.9881 0.417999 42.2941 0.309999 42.6901 0.309999H49.1161C49.4161 0.309999 49.6441 0.387999 49.8001 0.543999C49.9681 0.7 50.0521 0.922 50.0521 1.21C50.0521 1.51 49.9681 1.744 49.8001 1.912C49.6441 2.068 49.4161 2.146 49.1161 2.146H43.6801V5.638H48.7201C49.0321 5.638 49.2661 5.716 49.4221 5.872C49.5781 6.028 49.6561 6.256 49.6561 6.556C49.6561 6.856 49.5781 7.084 49.4221 7.24C49.2661 7.396 49.0321 7.474 48.7201 7.474H43.6801V11.164H49.1161C49.4161 11.164 49.6441 11.242 49.8001 11.398C49.9681 11.554 50.0521 11.782 50.0521 12.082C50.0521 12.382 49.9681 12.61 49.8001 12.766C49.6441 12.922 49.4161 13 49.1161 13H42.6901ZM53.2863 13.144C52.9503 13.144 52.6923 13.048 52.5123 12.856C52.3323 12.664 52.2423 12.4 52.2423 12.064V1.246C52.2423 0.897999 52.3383 0.633999 52.5303 0.454C52.7223 0.261999 52.9863 0.165999 53.3223 0.165999C53.6223 0.165999 53.8563 0.225999 54.0243 0.346C54.2043 0.454 54.3663 0.646 54.5103 0.922L58.9563 9.148H58.3803L62.8263 0.922C62.9703 0.646 63.1263 0.454 63.2943 0.346C63.4623 0.225999 63.6963 0.165999 63.9963 0.165999C64.3323 0.165999 64.5903 0.261999 64.7703 0.454C64.9503 0.633999 65.0403 0.897999 65.0403 1.246V12.064C65.0403 12.4 64.9503 12.664 64.7703 12.856C64.6023 13.048 64.3443 13.144 63.9963 13.144C63.6603 13.144 63.4023 13.048 63.2223 12.856C63.0423 12.664 62.9523 12.4 62.9523 12.064V3.73H63.3483L59.5683 10.624C59.4483 10.828 59.3223 10.978 59.1903 11.074C59.0583 11.17 58.8783 11.218 58.6503 11.218C58.4223 11.218 58.2363 11.17 58.0923 11.074C57.9483 10.966 57.8223 10.816 57.7143 10.624L53.8983 3.712H54.3303V12.064C54.3303 12.4 54.2403 12.664 54.0603 12.856C53.8923 13.048 53.6343 13.144 53.2863 13.144ZM67.9593 13.144C67.6713 13.144 67.4373 13.078 67.2573 12.946C67.0893 12.814 66.9873 12.64 66.9513 12.424C66.9153 12.196 66.9573 11.944 67.0773 11.668L71.8293 1.138C71.9853 0.789999 72.1713 0.543999 72.3873 0.399999C72.6153 0.243999 72.8733 0.165999 73.1613 0.165999C73.4373 0.165999 73.6833 0.243999 73.8993 0.399999C74.1273 0.543999 74.3193 0.789999 74.4753 1.138L79.2453 11.668C79.3773 11.944 79.4253 12.196 79.3893 12.424C79.3533 12.652 79.2513 12.832 79.0833 12.964C78.9153 13.084 78.6933 13.144 78.4173 13.144C78.0813 13.144 77.8173 13.066 77.6253 12.91C77.4453 12.742 77.2833 12.49 77.1393 12.154L75.9693 9.436L76.9413 10.066H69.3453L70.3173 9.436L69.1653 12.154C69.0093 12.502 68.8473 12.754 68.6793 12.91C68.5113 13.066 68.2713 13.144 67.9593 13.144ZM73.1253 2.812L70.6053 8.806L70.1373 8.23H76.1493L75.6993 8.806L73.1613 2.812H73.1253ZM82.3798 13.144C82.0078 13.144 81.7198 13.042 81.5158 12.838C81.3238 12.622 81.2278 12.328 81.2278 11.956V1.48C81.2278 1.096 81.3298 0.807999 81.5338 0.616C81.7378 0.411999 82.0258 0.309999 82.3978 0.309999H86.7358C88.1278 0.309999 89.2018 0.657999 89.9578 1.354C90.7138 2.05 91.0918 3.022 91.0918 4.27C91.0918 5.518 90.7138 6.496 89.9578 7.204C89.2018 7.9 88.1278 8.248 86.7358 8.248H83.5318V11.956C83.5318 12.328 83.4358 12.622 83.2438 12.838C83.0518 13.042 82.7638 13.144 82.3798 13.144ZM83.5318 6.43H86.3758C87.1918 6.43 87.8098 6.25 88.2298 5.89C88.6498 5.518 88.8598 4.978 88.8598 4.27C88.8598 3.562 88.6498 3.028 88.2298 2.668C87.8098 2.308 87.1918 2.128 86.3758 2.128H83.5318V6.43Z" fill="#FF6000"/>
</svg>
